<mxfile host="app.diagrams.net" modified="2023-12-08T08:07:27.520Z" agent="Mozilla/5.0 (Windows NT 10.0; Win64; x64) AppleWebKit/537.36 (KHTML, like Gecko) Chrome/120.0.0.0 Safari/537.36" etag="3EHHoI_Q0iJ0hAbluQU2" version="21.8.2" type="github">
  <diagram name="第 1 页" id="PLvwenAomk0wUzWfmGSb">
    <mxGraphModel dx="1434" dy="794" grid="1" gridSize="10" guides="1" tooltips="1" connect="1" arrows="1" fold="1" page="1" pageScale="1" pageWidth="827" pageHeight="1169" math="0" shadow="0">
      <root>
        <mxCell id="0" />
        <mxCell id="1" parent="0" />
        <mxCell id="j1Ikp117X4xAcDbRrK5y-3" value="" style="edgeStyle=orthogonalEdgeStyle;rounded=0;orthogonalLoop=1;jettySize=auto;html=1;" edge="1" parent="1" source="j1Ikp117X4xAcDbRrK5y-1">
          <mxGeometry relative="1" as="geometry">
            <mxPoint x="390" y="320" as="targetPoint" />
          </mxGeometry>
        </mxCell>
        <mxCell id="j1Ikp117X4xAcDbRrK5y-1" value="用户输入" style="rounded=0;whiteSpace=wrap;html=1;" vertex="1" parent="1">
          <mxGeometry x="330" y="210" width="120" height="60" as="geometry" />
        </mxCell>
        <mxCell id="j1Ikp117X4xAcDbRrK5y-5" value="" style="edgeStyle=orthogonalEdgeStyle;rounded=0;orthogonalLoop=1;jettySize=auto;html=1;" edge="1" parent="1" source="j1Ikp117X4xAcDbRrK5y-4" target="j1Ikp117X4xAcDbRrK5y-1">
          <mxGeometry relative="1" as="geometry" />
        </mxCell>
        <mxCell id="j1Ikp117X4xAcDbRrK5y-4" value="开始" style="rounded=1;whiteSpace=wrap;html=1;" vertex="1" parent="1">
          <mxGeometry x="330" y="110" width="120" height="60" as="geometry" />
        </mxCell>
        <mxCell id="j1Ikp117X4xAcDbRrK5y-13" value="" style="edgeStyle=orthogonalEdgeStyle;rounded=0;orthogonalLoop=1;jettySize=auto;html=1;" edge="1" parent="1" source="j1Ikp117X4xAcDbRrK5y-10" target="j1Ikp117X4xAcDbRrK5y-12">
          <mxGeometry relative="1" as="geometry" />
        </mxCell>
        <mxCell id="j1Ikp117X4xAcDbRrK5y-14" value="识别失败" style="edgeLabel;html=1;align=center;verticalAlign=middle;resizable=0;points=[];" vertex="1" connectable="0" parent="j1Ikp117X4xAcDbRrK5y-13">
          <mxGeometry x="0.0329" relative="1" as="geometry">
            <mxPoint as="offset" />
          </mxGeometry>
        </mxCell>
        <mxCell id="j1Ikp117X4xAcDbRrK5y-16" value="" style="edgeStyle=orthogonalEdgeStyle;rounded=0;orthogonalLoop=1;jettySize=auto;html=1;" edge="1" parent="1" source="j1Ikp117X4xAcDbRrK5y-10" target="j1Ikp117X4xAcDbRrK5y-15">
          <mxGeometry relative="1" as="geometry" />
        </mxCell>
        <mxCell id="j1Ikp117X4xAcDbRrK5y-10" value="AI智能识别" style="rhombus;whiteSpace=wrap;html=1;" vertex="1" parent="1">
          <mxGeometry x="350" y="320" width="80" height="60" as="geometry" />
        </mxCell>
        <mxCell id="j1Ikp117X4xAcDbRrK5y-12" value="结束" style="ellipse;whiteSpace=wrap;html=1;" vertex="1" parent="1">
          <mxGeometry x="530" y="740" width="50" height="50" as="geometry" />
        </mxCell>
        <mxCell id="j1Ikp117X4xAcDbRrK5y-18" value="" style="edgeStyle=orthogonalEdgeStyle;rounded=0;orthogonalLoop=1;jettySize=auto;html=1;" edge="1" parent="1" source="j1Ikp117X4xAcDbRrK5y-15" target="j1Ikp117X4xAcDbRrK5y-17">
          <mxGeometry relative="1" as="geometry" />
        </mxCell>
        <mxCell id="j1Ikp117X4xAcDbRrK5y-15" value="推荐元件" style="whiteSpace=wrap;html=1;" vertex="1" parent="1">
          <mxGeometry x="330" y="460" width="120" height="60" as="geometry" />
        </mxCell>
        <mxCell id="j1Ikp117X4xAcDbRrK5y-20" value="" style="edgeStyle=orthogonalEdgeStyle;rounded=0;orthogonalLoop=1;jettySize=auto;html=1;entryX=0;entryY=0.5;entryDx=0;entryDy=0;exitX=0.5;exitY=1;exitDx=0;exitDy=0;" edge="1" parent="1" source="j1Ikp117X4xAcDbRrK5y-17" target="j1Ikp117X4xAcDbRrK5y-12">
          <mxGeometry relative="1" as="geometry">
            <mxPoint x="390" y="730" as="targetPoint" />
          </mxGeometry>
        </mxCell>
        <mxCell id="j1Ikp117X4xAcDbRrK5y-17" value="提交元件订阅申请" style="whiteSpace=wrap;html=1;" vertex="1" parent="1">
          <mxGeometry x="330" y="600" width="120" height="60" as="geometry" />
        </mxCell>
      </root>
    </mxGraphModel>
  </diagram>
</mxfile>
